# xmcd
#
# Track frame offsets: 
#        150
#        10241
#        19893
#        32361
#        42801
#        58147
#        70280
#        80054
#        92690
#        108281
#        121889
#        135372
#        146249
#        158270
#        170732
#        181969
#        193788
#        206563
#        218294
#        229473
#        241333
#        252353
#        263653
#
# Disc length: 3685 seconds
#
# Revision: 0
# Processed by: cddbd v1.5.2PL0 Copyright (c) Steve Scherf et al.
# Submitted via: ExactAudioCopy v1.0b1
#
DISCID=3a0e6317
DTITLE=J.E. Mainer's Mountaineers - Classic Sides 1937-1941 Disc 1
DYEAR=2010
DGENRE=Bluegrass
TTITLE0=Carry Your Cross with a Smile
TTITLE1=Swing the Door of Your Heart Open Wide
TTITLE2=Answer to Greenback Dollar
TTITLE3=There's a Green Hill Far Away
TTITLE4=Don't Go Out
TTITLE5=Don't Get Trouble in Your Mind
TTITLE6=Kiss Me Cindy
TTITLE7=Your Best Friend Is Always Near
TTITLE8=Lamp Lighting Time in Heaven
TTITLE9=When the Light's Gone Out in Your Soul
TTITLE10=I Once Loved a Young Man
TTITLE11=Somebody Cares
TTITLE12=I'm Living the Right Life Now
TTITLE13=Just Over in the Glory Land
TTITLE14=I'm in the Gloryland Way
TTITLE15=If I Lose, Let Me Lose
TTITLE16=Great Reaping Day
TTITLE17=Oh Why Did I Ever Get Married
TTITLE18=Back to Johnson City
TTITLE19=Ramshackle Shack
TTITLE20=Memory Lane
TTITLE21=Wild Bill Jones
TTITLE22=I Want to Be Loved
EXTD=
EXTT0=
EXTT1=
EXTT2=
EXTT3=
EXTT4=
EXTT5=
EXTT6=
EXTT7=
EXTT8=
EXTT9=
EXTT10=
EXTT11=
EXTT12=
EXTT13=
EXTT14=
EXTT15=
EXTT16=
EXTT17=
EXTT18=
EXTT19=
EXTT20=
EXTT21=
EXTT22=
PLAYORDER=
